<?xml version="1.0" standalone="no"?>
<!DOCTYPE svg PUBLIC "-//W3C//DTD SVG 20010904//EN"
 "http://www.w3.org/TR/2001/REC-SVG-20010904/DTD/svg10.dtd">
<svg version="1.0" xmlns="http://www.w3.org/2000/svg"
 width="700.000000pt" height="700.000000pt" viewBox="0 0 700.000000 700.000000"
 preserveAspectRatio="xMidYMid meet">
<metadata>
Created by potrace 1.14, written by Peter Selinger 2001-2017
</metadata>
<g transform="translate(0.000000,700.000000) scale(0.100000,-0.100000)"
fill="#000000" stroke="none">
<path d="M3417 6344 c-1 -1 -52 -4 -113 -8 -61 -4 -121 -9 -135 -11 -13 -2
-40 -6 -59 -9 -45 -6 -134 -20 -140 -21 -3 -1 -23 -5 -45 -9 -524 -103 -1051
-391 -1443 -787 -367 -372 -610 -803 -742 -1314 -24 -92 -23 -89 -49 -256
-101 -657 26 -1312 366 -1881 409 -687 1096 -1175 1871 -1333 64 -13 140 -27
167 -30 28 -3 64 -8 80 -10 178 -22 528 -23 645 0 10 2 45 6 77 10 32 3 65 8
73 10 8 2 30 7 48 10 29 5 152 30 192 40 75 18 249 76 355 119 769 313 1365
945 1629 1729 42 123 76 253 91 339 3 18 8 40 10 48 5 18 12 59 21 125 3 28 8
58 9 67 22 113 21 550 -1 661 -2 12 -7 44 -10 72 -3 27 -10 72 -15 100 -6 27
-12 61 -15 75 -30 163 -112 411 -197 598 -335 733 -972 1296 -1737 1537 -81
25 -252 68 -315 79 -198 34 -337 47 -508 50 -60 1 -109 1 -110 0z m293 -228
c626 -52 1196 -316 1642 -760 195 -195 351 -407 475 -646 137 -264 231 -551
268 -815 3 -23 7 -50 9 -60 9 -47 19 -210 19 -320 2 -269 -32 -507 -108 -766
-186 -631 -622 -1181 -1208 -1524 -279 -162 -627 -283 -927 -321 -25 -3 -51
-7 -57 -9 -7 -3 -64 -8 -125 -12 -400 -25 -730 21 -1103 154 -80 28 -77 27
-208 87 -93 43 -315 169 -367 208 -14 11 -56 42 -95 71 -347 256 -654 644
-834 1055 -85 193 -159 454 -186 652 -3 25 -8 52 -10 60 -23 87 -23 525 0 663
2 12 6 39 9 60 8 52 35 183 48 232 5 22 12 49 14 61 5 26 72 229 89 269 7 17
25 59 40 95 227 533 676 1011 1208 1284 220 113 501 211 692 242 21 3 47 8 59
10 11 2 41 7 66 10 25 3 54 8 64 10 11 2 60 6 110 10 50 3 92 7 93 8 5 4 244
-2 323 -8z"/>
<path d="M3377 5904 c-1 -1 -40 -4 -86 -8 -72 -5 -141 -14 -242 -31 -14 -3
-78 -18 -142 -34 -398 -101 -796 -324 -1082 -608 -151 -150 -223 -236 -332
-400 -66 -100 -198 -343 -216 -398 -3 -11 -13 -38 -22 -60 -83 -212 -134 -440
-154 -685 -11 -132 -3 -411 14 -499 2 -10 7 -41 11 -68 33 -233 136 -534 260
-761 142 -260 361 -525 584 -706 41 -33 77 -63 80 -66 20 -25 279 -183 385
-235 164 -81 394 -164 525 -189 14 -3 36 -8 50 -11 30 -7 111 -22 160 -30 209
-32 570 -23 780 20 245 51 442 120 650 227 641 330 1108 942 1253 1643 42 200
51 299 50 515 -5 945 -568 1800 -1438 2183 -180 79 -402 146 -575 172 -25 4
-56 8 -70 10 -86 13 -432 28 -443 19z m348 -228 c502 -57 957 -272 1307 -619
370 -366 598 -845 644 -1348 38 -411 -36 -811 -216 -1175 -56 -113 -189 -325
-242 -386 -13 -14 -39 -46 -58 -69 -182 -225 -519 -473 -800 -589 -41 -17 -83
-35 -92 -40 -10 -6 -26 -10 -36 -10 -10 0 -22 -4 -28 -9 -14 -12 -227 -68
-330 -86 -132 -22 -222 -29 -374 -29 -254 0 -456 33 -690 111 -486 161 -901
490 -1172 929 -387 625 -430 1424 -113 2079 122 250 247 427 437 616 356 354
852 586 1338 627 109 9 337 8 425 -2z"/>
<path d="M3083 4922 c-21 -3 -22 -8 -22 -75 1 -40 1 -88 0 -109 l-1 -36 -112
2 c-142 2 -204 -13 -254 -63 -72 -72 -67 8 -67 -1141 l-1 -1035 22 -45 c26
-51 91 -104 142 -115 19 -5 87 -9 150 -10 63 -1 117 -3 120 -4 3 0 4 -48 4
-106 -2 -101 -1 -105 20 -106 106 -4 189 -3 193 4 3 4 5 54 5 111 l-1 103 107
-1 107 -1 3 -107 c1 -60 6 -108 10 -109 12 -1 176 -1 195 0 11 1 18 8 16 18
-1 10 -1 60 0 111 l1 92 28 0 c68 1 266 61 292 90 3 3 18 12 33 19 111 58 259
262 282 389 2 15 8 47 13 72 8 44 8 142 -1 191 -42 219 -184 403 -383 492
l-41 19 38 38 c113 114 180 295 173 464 -10 219 -118 405 -305 526 -33 21 -76
44 -95 50 l-34 12 -1 66 c0 37 0 95 1 130 l1 62 -33 1 c-45 1 -149 1 -170 0
-16 -1 -18 -13 -18 -109 l0 -108 -109 0 -110 0 1 104 c0 57 -2 106 -5 108 -6
6 -161 11 -194 6z m520 -451 c160 -38 296 -181 325 -340 42 -231 -98 -444
-333 -506 -48 -12 -127 -15 -405 -15 l-346 0 0 438 0 437 356 -1 c232 -1 372
-5 403 -13z m223 -1095 c146 -39 270 -157 311 -296 47 -158 -4 -335 -125 -441
-83 -72 -138 -99 -238 -116 -27 -5 -247 -8 -489 -8 l-440 0 -1 438 0 437 465
0 c363 0 477 -3 517 -14z"/>
</g>
</svg>
